<?xml version="1.0" encoding="utf-8"?>
<!-- Generator: Adobe Illustrator 23.1.1, SVG Export Plug-In . SVG Version: 6.00 Build 0)  -->
<svg version="1.1" id="Layer_1" xmlns="http://www.w3.org/2000/svg" xmlns:xlink="http://www.w3.org/1999/xlink" x="0px" y="0px"
	 viewBox="0 0 440 65.6" style="enable-background:new 0 0 440 65.6;" xml:space="preserve">
<style type="text/css">
	.st0{fill:#005595;}
	.st1{fill:#005595;}
</style>
<path class="st0" d="M-449.2,50.5L-449.2,50.5L-449.2,50.5z"/>
<g>
	<path class="st1" d="M85.8,65.4h-4.3c-0.4,0-0.7-0.3-0.7-0.7V41.4c0-10.1-7.6-18.4-17-18.4c-9.4,0-17,8.2-17,18.4
		c0,10,7.6,18.2,16.9,18.3c0.4,0,0.7,0.3,0.7,0.7v4.3c0,0.4-0.3,0.7-0.7,0.7c-12.4-0.1-22.5-10.8-22.5-24c0-13.2,10.2-24,22.7-24
		c6.6,0,12.7,3,17,8.1v-5.1c0-0.4,0.3-0.7,0.7-0.7h4.3c0.4,0,0.7,0.3,0.7,0.7v44.3C86.4,65.1,86.1,65.4,85.8,65.4"/>
	<path class="st1" d="M136.6,65.5h-4.3c-0.4,0-0.7-0.3-0.7-0.7V37.1c0-7.7-6.2-13.9-13.9-13.9c-7.5,0-13.8,6.2-14,13.9v27.6
		c0,0.4-0.3,0.7-0.7,0.7h-4.2c-0.4,0-0.7-0.3-0.7-0.7V20.6c0-0.4,0.3-0.7,0.7-0.7h4.2c0.4,0,0.7,0.3,0.7,0.7v2.9
		c3.7-3.8,8.7-5.9,14-5.9c10.8,0,19.5,8.8,19.5,19.5v27.7C137.3,65.2,137,65.5,136.6,65.5"/>
	<path class="st1" d="M192.2,65.4h-4.4c-0.4,0-0.7-0.3-0.7-0.7v-7.4c-4.4,5.1-10.7,8.1-17.4,8.1c-12.8,0-23.2-10.7-23.2-23.8
		c0-13.3,10.4-24,23.2-24c6.7,0,13,3,17.4,8.2V0h5.8v64.7C192.9,65.1,192.5,65.4,192.2,65.4 M187.1,56.2L187.1,56.2L187.1,56.2z
		 M169.7,23.2c-9.6,0-17.4,8.2-17.4,18.3c0,10,7.8,18.1,17.4,18.1c9.4,0,17-7.6,17.4-17.4v-1.5C186.7,30.9,179.1,23.2,169.7,23.2"/>
	<path class="st1" d="M254.8,65.3L254.8,65.3c-4.9-0.1-8.6-3.8-8.6-8.7V0.8c0-0.4,0.3-0.7,0.7-0.7h4.5c0.4,0,0.7,0.3,0.7,0.7v16.7
		h5.3c0.4,0,0.7,0.3,0.7,0.7v4.3c0,0.4-0.3,0.7-0.7,0.7H252v33.6c0,1.9,1.9,2.8,2.8,2.9c0.4,0,0.6,0.3,0.6,0.7v4.6l-0.2,0.3
		C255.1,65.3,255,65.3,254.8,65.3"/>
	<path class="st1" d="M286.6,65.3c-12.5,0-22.7-10.7-22.7-24s10.2-24,22.7-24c12.5,0,22.7,10.7,22.7,24
		C309.3,54.6,299.1,65.3,286.6,65.3 M286.6,23c-9.4,0-17,8.2-17,18.4c0,10.1,7.6,18.3,17,18.3c9.4,0,17-8.2,17-18.3
		C303.6,31.3,296,23,286.6,23"/>
	<path class="st1" d="M324.5,65.4h-4.3c-0.4,0-0.7-0.3-0.7-0.7V18.3c0-0.4,0.3-0.7,0.7-0.7h4.3c0.4,0,0.7,0.3,0.7,0.7v10.6
		c2.9-4.3,9-11.1,18.7-11.2h0.2l0.3,0.2c0.1,0.1,0.2,0.3,0.2,0.5v4.3c0,0.4-0.3,0.7-0.7,0.7c-5,0-9.1,2.4-13,7.4
		c-2.9,3.9-4.7,8.4-5.5,10.7c-0.2,0.3-0.2,0.4-0.2,0.6v22.7C325.2,65.1,324.9,65.4,324.5,65.4 M324.1,18.3L324.1,18.3L324.1,18.3z"
		/>
	<path class="st1" d="M393.7,65.4h-4.4c-0.4,0-0.7-0.3-0.7-0.7V37.1c0-7.7-6.2-14-13.9-14c-7.7,0-13.9,6.3-13.9,14v27.6
		c0,0.4-0.3,0.7-0.7,0.7h-4.2c-0.4,0-0.7-0.3-0.7-0.7l0-46.5c0-0.4,0.3-0.7,0.7-0.7h4.2c0.4,0,0.7,0.3,0.7,0.7l0,5.2
		c3.6-3.8,8.6-5.9,13.9-5.9c6.9,0,13.1,3.5,16.7,9.4c3.6-5.8,10-9.4,16.8-9.4c10.8,0,19.5,8.8,19.5,19.5l0,27.6
		c0,0.4-0.3,0.7-0.7,0.7h-4.2c-0.4,0-0.7-0.3-0.7-0.7l0-27.6c-0.1-4.1-1.9-7.9-4.9-10.5c-2.9-2.6-6.6-3.8-10.5-3.4
		c-7,0.7-12.4,7.1-12.4,14.4v27.1C394.3,65.1,394,65.4,393.7,65.4"/>
	<path class="st1" d="M393.7,65.4h-4.4c-0.4,0-0.7-0.3-0.7-0.7V37.1c0-7.7-6.2-14-13.9-14c-7.7,0-13.9,6.3-13.9,14v27.6
		c0,0.4-0.3,0.7-0.7,0.7h-4.2c-0.4,0-0.7-0.3-0.7-0.7V18.2c0-0.4,0.3-0.7,0.7-0.7h4.2c0.4,0,0.7,0.3,0.7,0.7l0,5.2
		c3.6-3.7,8.6-5.8,13.9-5.8c6.9,0,13.1,3.5,16.7,9.4c3.6-5.8,10-9.4,16.8-9.4c10.8,0,19.5,8.8,19.5,19.5v27.6c0,0.4-0.3,0.7-0.7,0.7
		h-4.2c-0.4,0-0.6-0.3-0.6-0.7V37.1c0-7.7-6.7-14-14-14c-7.4,0-13.8,6.3-13.8,14.5v27.1C394.3,65.1,394,65.4,393.7,65.4"/>
	<path class="st1" d="M17.4,65.6c-0.4,0-0.6-0.3-0.6-0.6v-4.4c0-0.4,0.3-0.6,0.6-0.6c3.7,0,11.8-2.5,11.8-8.1
		c0-6.2-9.6-8.1-13.1-8.8c-11.2-2-16-6.3-16-12.5c0-3.6,1.9-7.1,5.3-9.6c3.1-2.1,7.2-3.3,11.8-3.3c6.1,0,10.5,2.8,14.1,5.1l0.6,0.4
		L28.7,28l-0.8-0.5c-3.2-2.1-6.6-4.4-10.9-4.4c-3.5,0-6.5,0.9-8.5,2.5c-1.8,1.4-2.8,3.2-2.8,4.9c0,1.7,0.7,2.8,2.5,4.3
		c2.1,1.5,5.1,2.5,9.3,3.1c4.1,0.6,8.5,1.9,11.7,3.9c3.2,2,5.5,6.1,5.5,10c0,3.7-1.9,7.1-5.6,9.9C25.7,64.3,21.9,65.6,17.4,65.6
		 M17.4,61L17.4,61L17.4,61z"/>
	<path class="st1" d="M218.3,65.6c-0.4,0-0.6-0.3-0.6-0.6v-4.4c0-0.4,0.3-0.6,0.6-0.6c3.7,0,11.8-2.5,11.8-8.1
		c0-6.2-9.6-8.1-13.1-8.8c-11.2-2-16-6.3-16-12.5c0-3.6,1.9-7.1,5.3-9.6c3.1-2.1,7.2-3.3,11.8-3.3c6.1,0,10.5,2.8,14.1,5.1l0.6,0.4
		l-3.1,4.8l-0.8-0.5c-3.2-2.1-6.6-4.4-10.9-4.4c-3.5,0-6.5,0.9-8.5,2.5c-1.8,1.4-2.8,3.2-2.8,4.9c0,1.7,0.7,2.8,2.5,4.3
		c2.1,1.5,5.1,2.5,9.3,3.1c4.1,0.6,8.5,1.9,11.7,3.9c3.2,2,5.5,6.1,5.5,10c0,3.7-1.9,7.1-5.6,9.9C226.6,64.3,222.8,65.6,218.3,65.6
		 M218.3,61L218.3,61L218.3,61z"/>
	<path class="st1" d="M434.7,25.8c-3,0-5.3-2.4-5.3-5.3s2.4-5.3,5.3-5.3c3,0,5.3,2.4,5.3,5.3C440,23.4,437.6,25.8,434.7,25.8
		 M434.7,16c-2.6,0-4.5,2-4.5,4.5s1.9,4.5,4.5,4.5c2.6,0,4.5-2,4.5-4.5S437.2,16,434.7,16 M435.9,21l1.5,2.1h-1.3l-1.4-1.9h-1.2v1.9
		h-1.1v-5.6h2.5c1.3,0,2.1,0.7,2.1,1.8C437.2,20.3,436.6,20.8,435.9,21 M435,18.5h-1.4v1.8h1.4c0.7,0,1.1-0.3,1.1-0.9
		C436.1,18.8,435.7,18.5,435,18.5"/>
</g>
</svg>
