<svg width="228" height="61" viewBox="0 0 228 61" fill="none" xmlns="http://www.w3.org/2000/svg">
<path d="M2.4656 35.4321V43.4235H0.364258V35.4321H2.4656Z" fill="white"/>
<path d="M8.35014 35.4321V41.664H10.8691V43.4235H6.24902V35.4321H8.35014Z" fill="white"/>
<path d="M16.1333 35.4321V41.664H18.6524V43.4235H14.0322V35.4321H16.1333Z" fill="white"/>
<path d="M23.9273 35.4321V43.4235H21.8262V35.4321H23.9273Z" fill="white"/>
<path d="M27.71 43.4235V35.4321H29.8113L33.6914 40.3179V35.4321H35.7817V43.4235H33.6914L29.8113 38.5378V43.4235H27.71Z" fill="white"/>
<path d="M41.3785 39.4281C41.3785 39.7459 41.4387 40.0391 41.5608 40.3079C41.6824 40.5761 41.8462 40.8093 42.0539 41.0074C42.261 41.2049 42.5024 41.3585 42.7771 41.4687C43.0523 41.5777 43.3438 41.6328 43.6511 41.6328C43.9584 41.6328 44.2494 41.5777 44.5241 41.4687C44.7998 41.3585 45.0424 41.2049 45.2535 41.0074C45.464 40.8093 45.63 40.5761 45.7521 40.3079C45.8737 40.0391 45.9339 39.7459 45.9339 39.4281C45.9339 39.1098 45.8737 38.8166 45.7521 38.5483C45.63 38.2796 45.464 38.0464 45.2535 37.8489C45.0424 37.6508 44.7998 37.4972 44.5241 37.3876C44.2494 37.2779 43.9584 37.2234 43.6511 37.2234C43.3438 37.2234 43.0523 37.2779 42.7771 37.3876C42.5024 37.4972 42.261 37.6508 42.0539 37.8489C41.8462 38.0464 41.6824 38.2796 41.5608 38.5483C41.4387 38.8166 41.3785 39.1098 41.3785 39.4281ZM39.1807 39.4281C39.1807 38.8344 39.2915 38.2818 39.5127 37.7693C39.7345 37.2568 40.0418 36.8105 40.4352 36.4282C40.828 36.0465 41.298 35.7482 41.8445 35.5329C42.391 35.3175 42.9932 35.2096 43.6511 35.2096C44.3012 35.2096 44.9012 35.3175 45.4522 35.5329C46.002 35.7482 46.4754 36.0465 46.8721 36.4282C47.2684 36.8105 47.5779 37.2568 47.7997 37.7693C48.0209 38.2818 48.1323 38.8344 48.1323 39.4281C48.1323 40.0213 48.0209 40.5744 47.7997 41.0864C47.5779 41.5989 47.2684 42.0457 46.8721 42.4275C46.4754 42.8092 46.002 43.1075 45.4522 43.3234C44.9012 43.5382 44.3012 43.6467 43.6511 43.6467C42.9932 43.6467 42.391 43.5382 41.8445 43.3234C41.298 43.1075 40.828 42.8092 40.4352 42.4275C40.0418 42.0457 39.7345 41.5989 39.5127 41.0864C39.2915 40.5744 39.1807 40.0213 39.1807 39.4281Z" fill="white"/>
<path d="M53.5459 35.4321V43.4235H51.4443V35.4321H53.5459Z" fill="white"/>
<path d="M61.66 37.4777C61.4309 37.2941 61.2024 37.1583 60.9739 37.0693C60.7454 36.9813 60.5236 36.9374 60.3092 36.9374C60.0379 36.9374 59.8162 37.0008 59.6451 37.1282C59.4734 37.2551 59.3879 37.421 59.3879 37.6257C59.3879 37.7676 59.4306 37.8839 59.5162 37.9757C59.6017 38.0676 59.7143 38.1471 59.8539 38.2145C59.9934 38.2818 60.1499 38.3402 60.3255 38.3892C60.5005 38.4387 60.6739 38.4916 60.845 38.5483C61.5311 38.7743 62.0337 39.0764 62.3511 39.4548C62.6697 39.8321 62.8284 40.3251 62.8284 40.9334C62.8284 41.3429 62.7591 41.7135 62.6196 42.0457C62.4805 42.3779 62.2762 42.6623 62.0083 42.8993C61.7404 43.1358 61.4118 43.3195 61.0223 43.4502C60.6328 43.581 60.191 43.6467 59.698 43.6467C58.6765 43.6467 57.7292 43.3462 56.8574 42.7458L57.7579 41.0708C58.0725 41.3462 58.3832 41.551 58.6905 41.6851C58.9978 41.8198 59.3017 41.8871 59.6017 41.8871C59.945 41.8871 60.2006 41.8092 60.3683 41.654C60.5366 41.4982 60.6204 41.3218 60.6204 41.1242C60.6204 41.004 60.599 40.8994 60.5563 40.8109C60.5135 40.723 60.4414 40.6412 60.3413 40.5678C60.2411 40.4932 60.1111 40.4242 59.9507 40.3602C59.7891 40.2968 59.595 40.2261 59.3665 40.1487C59.0941 40.0636 58.8279 39.9701 58.5678 39.8677C58.3067 39.7653 58.0742 39.6296 57.8705 39.4598C57.6668 39.2901 57.5024 39.0764 57.3775 38.8188C57.2525 38.5606 57.1895 38.2339 57.1895 37.8377C57.1895 37.4421 57.2559 37.0843 57.3882 36.7627C57.5204 36.441 57.7062 36.165 57.9453 35.9352C58.1851 35.7059 58.4778 35.5279 58.825 35.3999C59.1712 35.273 59.559 35.2096 59.9878 35.2096C60.388 35.2096 60.8062 35.2641 61.2423 35.3743C61.678 35.4833 62.0956 35.6442 62.4963 35.8562L61.66 37.4777Z" fill="white"/>
<path d="M73.9565 38.5166H76.9901V35.4321H79.0911V43.4235H76.9901V40.1276H73.9565V43.4235H71.8555V35.4321H73.9565V38.5166Z" fill="white"/>
<path d="M84.5898 39.4281C84.5898 39.7459 84.65 40.0391 84.7722 40.3079C84.8937 40.5761 85.0575 40.8093 85.2652 41.0074C85.4723 41.2049 85.7138 41.3585 85.9884 41.4687C86.2642 41.5777 86.5552 41.6328 86.8625 41.6328C87.1698 41.6328 87.4608 41.5777 87.736 41.4687C88.0112 41.3585 88.2543 41.2049 88.4654 41.0074C88.6759 40.8093 88.8419 40.5761 88.9635 40.3079C89.0851 40.0391 89.1458 39.7459 89.1458 39.4281C89.1458 39.1098 89.0851 38.8166 88.9635 38.5483C88.8419 38.2796 88.6759 38.0464 88.4654 37.8489C88.2543 37.6508 88.0112 37.4972 87.736 37.3876C87.4608 37.2779 87.1698 37.2234 86.8625 37.2234C86.5552 37.2234 86.2642 37.2779 85.9884 37.3876C85.7138 37.4972 85.4723 37.6508 85.2652 37.8489C85.0575 38.0464 84.8937 38.2796 84.7722 38.5483C84.65 38.8166 84.5898 39.1098 84.5898 39.4281ZM82.3926 39.4281C82.3926 38.8344 82.5029 38.2818 82.7241 37.7693C82.9458 37.2568 83.2531 36.8105 83.6465 36.4282C84.0394 36.0465 84.5093 35.7482 85.0558 35.5329C85.6029 35.3175 86.2046 35.2096 86.8625 35.2096C87.5125 35.2096 88.1131 35.3175 88.6635 35.5329C89.2139 35.7482 89.6873 36.0465 90.0841 36.4282C90.4803 36.8105 90.7898 37.2568 91.011 37.7693C91.2328 38.2818 91.3436 38.8344 91.3436 39.4281C91.3436 40.0213 91.2328 40.5744 91.011 41.0864C90.7898 41.5989 90.4803 42.0457 90.0841 42.4275C89.6873 42.8092 89.2139 43.1075 88.6635 43.3234C88.1131 43.5382 87.5125 43.6467 86.8625 43.6467C86.2046 43.6467 85.6029 43.5382 85.0558 43.3234C84.5093 43.1075 84.0394 42.8092 83.6465 42.4275C83.2531 42.0457 82.9458 41.5989 82.7241 41.0864C82.5029 40.5744 82.3926 40.0213 82.3926 39.4281Z" fill="white"/>
<path d="M96.7573 35.4321V41.664H99.2764V43.4235H94.6562V35.4321H96.7573Z" fill="white"/>
<path d="M104.014 39.4281C104.014 39.7459 104.074 40.0391 104.197 40.3079C104.318 40.5761 104.482 40.8093 104.69 41.0074C104.897 41.2049 105.138 41.3585 105.413 41.4687C105.688 41.5777 105.98 41.6328 106.287 41.6328C106.594 41.6328 106.885 41.5777 107.16 41.4687C107.436 41.3585 107.678 41.2049 107.889 41.0074C108.1 40.8093 108.266 40.5761 108.388 40.3079C108.509 40.0391 108.57 39.7459 108.57 39.4281C108.57 39.1098 108.509 38.8166 108.388 38.5483C108.266 38.2796 108.1 38.0464 107.889 37.8489C107.678 37.6508 107.436 37.4972 107.16 37.3876C106.885 37.2779 106.594 37.2234 106.287 37.2234C105.98 37.2234 105.688 37.2779 105.413 37.3876C105.138 37.4972 104.897 37.6508 104.69 37.8489C104.482 38.0464 104.318 38.2796 104.197 38.5483C104.074 38.8166 104.014 39.1098 104.014 39.4281ZM101.816 39.4281C101.816 38.8344 101.927 38.2818 102.148 37.7693C102.37 37.2568 102.678 36.8105 103.071 36.4282C103.464 36.0465 103.934 35.7482 104.48 35.5329C105.027 35.3175 105.629 35.2096 106.287 35.2096C106.937 35.2096 107.537 35.3175 108.088 35.5329C108.638 35.7482 109.111 36.0465 109.508 36.4282C109.904 36.8105 110.214 37.2568 110.435 37.7693C110.657 38.2818 110.768 38.8344 110.768 39.4281C110.768 40.0213 110.657 40.5744 110.435 41.0864C110.214 41.5989 109.904 42.0457 109.508 42.4275C109.111 42.8092 108.638 43.1075 108.088 43.3234C107.537 43.5382 106.937 43.6467 106.287 43.6467C105.629 43.6467 105.027 43.5382 104.48 43.3234C103.934 43.1075 103.464 42.8092 103.071 42.4275C102.678 42.0457 102.37 41.5989 102.148 41.0864C101.927 40.5744 101.816 40.0213 101.816 39.4281Z" fill="white"/>
<path d="M119.901 38.1032C119.415 37.5167 118.814 37.2234 118.1 37.2234C117.785 37.2234 117.495 37.2796 117.226 37.3926C116.959 37.5061 116.727 37.6597 116.535 37.8544C116.342 38.0481 116.19 38.2796 116.079 38.5483C115.969 38.8166 115.913 39.1065 115.913 39.417C115.913 39.7353 115.969 40.0285 116.079 40.2968C116.19 40.5661 116.344 40.7992 116.54 40.9968C116.736 41.1943 116.967 41.3501 117.232 41.4631C117.496 41.5761 117.782 41.6328 118.089 41.6328C118.761 41.6328 119.365 41.3501 119.901 40.7848V43.2432L119.686 43.3178C119.365 43.4308 119.065 43.5137 118.786 43.5665C118.508 43.62 118.232 43.6467 117.961 43.6467C117.403 43.6467 116.869 43.5421 116.358 43.3334C115.847 43.1253 115.396 42.832 115.008 42.4536C114.617 42.0758 114.305 41.6273 114.069 41.1075C113.833 40.5889 113.716 40.0213 113.716 39.407C113.716 38.7921 113.832 38.2284 114.064 37.7159C114.296 37.2045 114.607 36.7627 114.996 36.3915C115.386 36.0203 115.838 35.7304 116.353 35.5223C116.868 35.3136 117.407 35.2096 117.971 35.2096C118.293 35.2096 118.609 35.2429 118.92 35.3103C119.231 35.377 119.558 35.4817 119.901 35.623V38.1032Z" fill="white"/>
<path d="M127.855 40.4559L126.912 37.7954L125.969 40.4559H127.855ZM128.413 42.0352H125.411L124.929 43.4235H122.688L125.765 35.4321H128.059L131.136 43.4235H128.895L128.413 42.0352Z" fill="white"/>
<path d="M135.916 35.4321V39.7781C135.916 40.0113 135.925 40.2495 135.943 40.4932C135.961 40.7369 136.014 40.9578 136.104 41.1554C136.193 41.3535 136.334 41.5143 136.527 41.6378C136.72 41.7614 136.991 41.8231 137.342 41.8231C137.692 41.8231 137.962 41.7614 138.151 41.6378C138.341 41.5143 138.482 41.3535 138.575 41.1554C138.667 40.9578 138.723 40.7369 138.741 40.4932C138.759 40.2495 138.768 40.0113 138.768 39.7781V35.4321H140.858V40.0636C140.858 41.3079 140.57 42.2154 139.995 42.788C139.42 43.3601 138.536 43.6467 137.342 43.6467C136.148 43.6467 135.262 43.3601 134.684 42.788C134.104 42.2154 133.815 41.3079 133.815 40.0636V35.4321H135.916Z" fill="white"/>
<path d="M148.973 37.4777C148.744 37.2941 148.516 37.1583 148.287 37.0693C148.058 36.9813 147.837 36.9374 147.623 36.9374C147.351 36.9374 147.13 37.0008 146.958 37.1282C146.787 37.2551 146.701 37.421 146.701 37.6257C146.701 37.7676 146.744 37.8839 146.83 37.9757C146.915 38.0676 147.027 38.1471 147.167 38.2145C147.307 38.2818 147.463 38.3402 147.638 38.3892C147.814 38.4387 147.987 38.4916 148.158 38.5483C148.845 38.7743 149.347 39.0764 149.665 39.4548C149.983 39.8321 150.142 40.3251 150.142 40.9334C150.142 41.3429 150.073 41.7135 149.933 42.0457C149.793 42.3779 149.59 42.6623 149.322 42.8993C149.054 43.1358 148.725 43.3195 148.336 43.4502C147.946 43.581 147.504 43.6467 147.011 43.6467C145.99 43.6467 145.043 43.3462 144.171 42.7458L145.071 41.0708C145.385 41.3462 145.697 41.551 146.004 41.6851C146.311 41.8198 146.615 41.8871 146.915 41.8871C147.259 41.8871 147.514 41.8092 147.682 41.654C147.849 41.4982 147.934 41.3218 147.934 41.1242C147.934 41.004 147.913 40.8994 147.87 40.8109C147.826 40.723 147.754 40.6412 147.655 40.5678C147.555 40.4932 147.424 40.4242 147.264 40.3602C147.103 40.2968 146.908 40.2261 146.679 40.1487C146.408 40.0636 146.141 39.9701 145.881 39.8677C145.62 39.7653 145.387 39.6296 145.184 39.4598C144.98 39.2901 144.816 39.0764 144.691 38.8188C144.565 38.5606 144.503 38.2339 144.503 37.8377C144.503 37.4421 144.569 37.0843 144.702 36.7627C144.834 36.441 145.02 36.165 145.259 35.9352C145.499 35.7059 145.791 35.5279 146.138 35.3999C146.485 35.273 146.872 35.2096 147.301 35.2096C147.701 35.2096 148.12 35.2641 148.555 35.3743C148.991 35.4833 149.409 35.6442 149.81 35.8562L148.973 37.4777Z" fill="white"/>
<path d="M156.552 37.1917V43.4235H154.451V37.1917H152.725V35.4321H158.278V37.1917H156.552Z" fill="white"/>
<path d="M165.868 43.4235L167.24 35.4321H169.32L170.939 39.693L172.547 35.4321H174.626L175.998 43.4235H173.908L173.211 38.8238L171.303 43.4235H170.467L168.655 38.8238L167.958 43.4235H165.868Z" fill="white"/>
<path d="M181.412 35.4321V39.7781C181.412 40.0113 181.421 40.2495 181.438 40.4932C181.456 40.7369 181.509 40.9578 181.599 41.1554C181.688 41.3535 181.829 41.5143 182.022 41.6378C182.215 41.7614 182.487 41.8231 182.837 41.8231C183.187 41.8231 183.457 41.7614 183.647 41.6378C183.836 41.5143 183.977 41.3535 184.07 41.1554C184.163 40.9578 184.218 40.7369 184.236 40.4932C184.254 40.2495 184.263 40.0113 184.263 39.7781V35.4321H186.353V40.0636C186.353 41.3079 186.066 42.2154 185.49 42.788C184.915 43.3601 184.031 43.6467 182.837 43.6467C181.643 43.6467 180.758 43.3601 180.179 42.788C179.599 42.2154 179.311 41.3079 179.311 40.0636V35.4321H181.412Z" fill="white"/>
<path d="M194.629 37.4777C194.4 37.2941 194.171 37.1583 193.943 37.0693C193.714 36.9813 193.492 36.9374 193.278 36.9374C193.007 36.9374 192.785 37.0008 192.614 37.1282C192.442 37.2551 192.356 37.421 192.356 37.6257C192.356 37.7676 192.399 37.8839 192.485 37.9757C192.57 38.0676 192.683 38.1471 192.823 38.2145C192.962 38.2818 193.119 38.3402 193.294 38.3892C193.469 38.4387 193.643 38.4916 193.814 38.5483C194.5 38.7743 195.002 39.0764 195.32 39.4548C195.638 39.8321 195.797 40.3251 195.797 40.9334C195.797 41.3429 195.728 41.7135 195.588 42.0457C195.449 42.3779 195.245 42.6623 194.977 42.8993C194.709 43.1358 194.381 43.3195 193.991 43.4502C193.601 43.581 193.16 43.6467 192.667 43.6467C191.645 43.6467 190.698 43.3462 189.826 42.7458L190.727 41.0708C191.041 41.3462 191.352 41.551 191.659 41.6851C191.967 41.8198 192.27 41.8871 192.57 41.8871C192.914 41.8871 193.169 41.8092 193.337 41.654C193.505 41.4982 193.589 41.3218 193.589 41.1242C193.589 41.004 193.568 40.8994 193.525 40.8109C193.482 40.723 193.41 40.6412 193.31 40.5678C193.21 40.4932 193.08 40.4242 192.919 40.3602C192.758 40.2968 192.564 40.2261 192.335 40.1487C192.063 40.0636 191.797 39.9701 191.536 39.8677C191.275 39.7653 191.042 39.6296 190.839 39.4598C190.636 39.2901 190.471 39.0764 190.346 38.8188C190.221 38.5606 190.158 38.2339 190.158 37.8377C190.158 37.4421 190.224 37.0843 190.357 36.7627C190.489 36.441 190.675 36.165 190.914 35.9352C191.154 35.7059 191.447 35.5279 191.793 35.3999C192.14 35.273 192.528 35.2096 192.957 35.2096C193.357 35.2096 193.775 35.2641 194.211 35.3743C194.647 35.4833 195.064 35.6442 195.465 35.8562L194.629 37.4777Z" fill="white"/>
<path d="M203.86 37.1917H201.362V38.5272H203.72V40.2867H201.362V41.664H203.86V43.4235H199.261V35.4321H203.86V37.1917Z" fill="white"/>
<path d="M209.616 35.4321V39.7781C209.616 40.0113 209.625 40.2495 209.642 40.4932C209.661 40.7369 209.714 40.9578 209.804 41.1554C209.893 41.3535 210.034 41.5143 210.226 41.6378C210.419 41.7614 210.691 41.8231 211.042 41.8231C211.392 41.8231 211.661 41.7614 211.851 41.6378C212.04 41.5143 212.181 41.3535 212.274 41.1554C212.367 40.9578 212.422 40.7369 212.44 40.4932C212.458 40.2495 212.467 40.0113 212.467 39.7781V35.4321H214.558V40.0636C214.558 41.3079 214.27 42.2154 213.695 42.788C213.119 43.3601 212.235 43.6467 211.042 43.6467C209.848 43.6467 208.962 43.3601 208.383 42.788C207.804 42.2154 207.515 41.3079 207.515 40.0636V35.4321H209.616Z" fill="white"/>
<path d="M217.87 43.4235L219.242 35.4321H221.321L222.94 39.693L224.549 35.4321H226.628L228 43.4235H225.91L225.213 38.8238L223.305 43.4235H222.468L220.657 38.8238L219.96 43.4235H217.87Z" fill="white"/>
<path d="M3.80567 55.2306C4.30579 54.9334 4.55579 54.6013 4.55579 54.2342C4.55579 54.0366 4.48983 53.8651 4.35745 53.7199C4.22491 53.5751 4.05562 53.5029 3.8485 53.5029C3.65551 53.5029 3.49454 53.5664 3.36594 53.6938C3.23733 53.8212 3.17289 53.9798 3.17289 54.1707C3.17289 54.425 3.38355 54.7789 3.80567 55.2306ZM2.93724 56.9684C2.42935 57.2802 2.17591 57.5906 2.17591 57.9016C2.17591 58.0146 2.20073 58.1187 2.25128 58.214C2.30075 58.3089 2.3689 58.3909 2.45468 58.4581C2.54039 58.525 2.63866 58.5783 2.74926 58.6168C2.8603 58.6557 2.98012 58.6752 3.10873 58.6752C3.46595 58.6752 3.83359 58.5589 4.21281 58.3257L2.93724 56.9684ZM5.74582 57.2552C6.17452 56.8522 6.52453 56.4711 6.79604 56.1099L7.98612 57.2441C7.86455 57.4071 7.72711 57.5712 7.57323 57.7371C7.41936 57.9033 7.24303 58.0781 7.04295 58.2618L6.88181 58.4103L8.68305 60.3072H6.06724L5.36001 59.5762C4.39483 60.2116 3.46927 60.5305 2.58328 60.5305C2.20445 60.5305 1.85775 60.4731 1.54336 60.3607C1.22897 60.2477 0.957466 60.0886 0.728849 59.8834C0.500176 59.6786 0.321426 59.4371 0.192821 59.1576C0.0642173 58.8783 0 58.5728 0 58.2407C0 57.944 0.0406911 57.6803 0.123144 57.451C0.204922 57.2212 0.346302 57.0008 0.546328 56.7887C0.696319 56.6263 0.862913 56.4865 1.04476 56.3698C1.22723 56.2535 1.45038 56.1348 1.71485 56.0149L1.9402 55.909L1.80063 55.7499C1.38617 55.234 1.17888 54.7426 1.17888 54.2764C1.17888 53.9659 1.24327 53.6759 1.37187 53.4077C1.50053 53.1388 1.67748 52.9073 1.90283 52.7132C2.12751 52.5191 2.39355 52.3672 2.70136 52.2574C3.00866 52.1479 3.34067 52.0928 3.69834 52.0928C4.06287 52.0928 4.3986 52.1479 4.70595 52.2574C5.01308 52.3672 5.27907 52.5207 5.50442 52.7183C5.72978 52.9162 5.90459 53.1477 6.02987 53.4134C6.15476 53.6777 6.2174 53.9659 6.2174 54.2764C6.2174 54.4883 6.19213 54.6815 6.14198 54.8539C6.09212 55.0276 6.00854 55.1901 5.89029 55.3414C5.77266 55.4938 5.61873 55.6386 5.42923 55.7766C5.24018 55.9146 5.00605 56.0538 4.72728 56.195L5.74582 57.2552Z" fill="white"/>
<path d="M20.8176 54.0756H18.3201V55.4104H20.678V57.1701H18.3201V58.5479H20.8176V60.3073H16.2188V52.316H20.8176V54.0756Z" fill="white"/>
<path d="M26.896 58.5479H27.3782C27.7425 58.5479 28.0679 58.4912 28.3537 58.3782C28.6395 58.2651 28.8809 58.11 29.0776 57.912C29.2737 57.7144 29.4239 57.4794 29.5277 57.2074C29.631 56.9358 29.6833 56.6364 29.6833 56.3115C29.6833 55.9937 29.6295 55.6972 29.5221 55.4218C29.4151 55.1461 29.2634 54.9092 29.0667 54.7116C28.8699 54.5136 28.6291 54.3582 28.3433 54.2454C28.0569 54.1317 27.7354 54.0756 27.3782 54.0756H26.896V58.5479ZM24.7949 52.316H27.9037C28.4537 52.316 28.9704 52.4258 29.4525 52.6449C29.935 52.8635 30.3565 53.1552 30.7177 53.5191C31.0783 53.883 31.3626 54.3071 31.5697 54.7908C31.7768 55.2748 31.8809 55.7817 31.8809 56.3115C31.8809 56.8344 31.7791 57.3381 31.5753 57.8217C31.3716 58.3058 31.089 58.7321 30.728 59.0994C30.3675 59.4666 29.9454 59.7598 29.4635 59.9784C28.9809 60.1984 28.461 60.3073 27.9037 60.3073H24.7949V52.316Z" fill="white"/>
<path d="M37.2416 52.3159V56.6613C37.2416 56.8945 37.2506 57.1332 37.2681 57.3769C37.2861 57.6208 37.3396 57.8416 37.429 58.0392C37.518 58.2368 37.6592 58.3981 37.8523 58.5216C38.0453 58.6452 38.3166 58.707 38.6672 58.707C39.0173 58.707 39.2875 58.6452 39.4766 58.5216C39.6662 58.3981 39.807 58.2368 39.9004 58.0392C39.9927 57.8416 40.0478 57.6208 40.0664 57.3769C40.0839 57.1332 40.0929 56.8945 40.0929 56.6613V52.3159H42.1832V56.9474C42.1832 58.1911 41.8956 59.0993 41.3204 59.6718C40.7452 60.244 39.8604 60.5305 38.6672 60.5305C37.4735 60.5305 36.5876 60.244 36.0091 59.6718C35.4293 59.0993 35.1406 58.1911 35.1406 56.9474V52.3159H37.2416Z" fill="white"/>
<path d="M51.6799 54.9869C51.1942 54.4005 50.5943 54.1072 49.8795 54.1072C49.5643 54.1072 49.2739 54.1633 49.0054 54.2764C48.7381 54.3894 48.5073 54.5435 48.3143 54.7376C48.1212 54.9319 47.9698 55.1634 47.8584 55.4316C47.7481 55.7003 47.6924 55.9897 47.6924 56.3007C47.6924 56.6191 47.7481 56.9124 47.8584 57.1806C47.9698 57.4493 48.1229 57.6825 48.3199 57.8805C48.5158 58.0781 48.7465 58.234 49.011 58.347C49.2756 58.4598 49.5615 58.5161 49.8688 58.5161C50.5402 58.5161 51.1441 58.234 51.6799 57.6686V60.127L51.4655 60.2016C51.1441 60.3146 50.8441 60.3975 50.5655 60.4503C50.287 60.5038 50.0112 60.5305 49.7399 60.5305C49.1827 60.5305 48.6486 60.4259 48.137 60.2172C47.6265 60.009 47.1757 59.7158 46.7868 59.3373C46.3973 58.9596 46.0844 58.5111 45.8486 57.9914C45.6127 57.4721 45.4951 56.9052 45.4951 56.2903C45.4951 55.6758 45.6111 55.1121 45.8435 54.5996C46.0754 54.0877 46.3866 53.6459 46.7755 53.2747C47.1656 52.9037 47.6175 52.6141 48.1325 52.4061C48.6469 52.1974 49.1861 52.0928 49.7512 52.0928C50.0725 52.0928 50.3883 52.1268 50.6995 52.1942C51.0102 52.2609 51.3372 52.3655 51.6799 52.5067V54.9869Z" fill="white"/>
<path d="M59.527 57.3398L58.5837 54.6795L57.6405 57.3398H59.527ZM60.0848 58.919H57.0833L56.6004 60.3073H54.3604L57.4367 52.316H59.7308L62.8077 60.3073H60.5665L60.0848 58.919Z" fill="white"/>
<path d="M68.1563 54.0756V60.3073H66.0547V54.0756H64.3291V52.316H69.8819V54.0756H68.1563Z" fill="white"/>
<path d="M75.0498 52.316V60.3073H72.9482V52.316H75.0498Z" fill="white"/>
<path d="M80.5058 56.3114C80.5058 56.6296 80.5666 56.9228 80.6882 57.1917C80.8098 57.4599 80.9735 57.6929 81.1812 57.8905C81.3883 58.0888 81.6298 58.2422 81.9044 58.352C82.1802 58.4615 82.4712 58.5161 82.7785 58.5161C83.0858 58.5161 83.3773 58.4615 83.652 58.352C83.9272 58.2422 84.1703 58.0888 84.3814 57.8905C84.5919 57.6929 84.7579 57.4599 84.8801 57.1917C85.0011 56.9228 85.0619 56.6296 85.0619 56.3114C85.0619 55.9936 85.0011 55.7003 84.8801 55.4316C84.7579 55.1634 84.5919 54.9302 84.3814 54.7326C84.1703 54.5346 83.9272 54.3809 83.652 54.2707C83.3773 54.1618 83.0858 54.1072 82.7785 54.1072C82.4712 54.1072 82.1802 54.1618 81.9044 54.2707C81.6298 54.3809 81.3883 54.5346 81.1812 54.7326C80.9735 54.9302 80.8098 55.1634 80.6882 55.4316C80.5666 55.7003 80.5058 55.9936 80.5058 56.3114ZM78.3086 56.3114C78.3086 55.7182 78.4189 55.1656 78.6407 54.653C78.8618 54.1405 79.1691 53.6938 79.5625 53.3121C79.956 52.9302 80.4259 52.632 80.9718 52.4161C81.5189 52.2013 82.1206 52.0928 82.7785 52.0928C83.4286 52.0928 84.0291 52.2013 84.5795 52.4161C85.13 52.632 85.6033 52.9302 86.0001 53.3121C86.3963 53.6938 86.7059 54.1405 86.927 54.653C87.1488 55.1656 87.2597 55.7182 87.2597 56.3114C87.2597 56.9052 87.1488 57.4582 86.927 57.9701C86.7059 58.4826 86.3963 58.9296 86.0001 59.3113C85.6033 59.6929 85.13 59.9912 84.5795 60.2066C84.0291 60.422 83.4286 60.5305 82.7785 60.5305C82.1206 60.5305 81.5189 60.422 80.9718 60.2066C80.4259 59.9912 79.956 59.6929 79.5625 59.3113C79.1691 58.9296 78.8618 58.4826 78.6407 57.9701C78.4189 57.4582 78.3086 56.9052 78.3086 56.3114Z" fill="white"/>
<path d="M90.5078 60.3073V52.316H92.6088L96.4895 57.2018V52.316H98.5792V60.3073H96.4895L92.6088 55.4218V60.3073H90.5078Z" fill="white"/>
<path d="M113.438 54.9869C112.952 54.4005 112.351 54.1072 111.637 54.1072C111.322 54.1072 111.031 54.1633 110.763 54.2764C110.495 54.3894 110.265 54.5435 110.072 54.7376C109.879 54.9319 109.727 55.1634 109.616 55.4316C109.505 55.7003 109.45 55.9897 109.45 56.3007C109.45 56.6191 109.505 56.9124 109.616 57.1806C109.727 57.4493 109.88 57.6825 110.077 57.8805C110.274 58.0781 110.504 58.234 110.769 58.347C111.033 58.4598 111.319 58.5161 111.626 58.5161C112.297 58.5161 112.902 58.234 113.438 57.6686V60.127L113.223 60.2016C112.902 60.3146 112.601 60.3975 112.323 60.4503C112.044 60.5038 111.769 60.5305 111.498 60.5305C110.94 60.5305 110.406 60.4259 109.895 60.2172C109.384 60.009 108.934 59.7158 108.544 59.3373C108.155 58.9596 107.842 58.5111 107.606 57.9914C107.371 57.4721 107.253 56.9052 107.253 56.2903C107.253 55.6758 107.369 55.1121 107.601 54.5996C107.833 54.0877 108.144 53.6459 108.533 53.2747C108.923 52.9037 109.375 52.6141 109.89 52.4061C110.404 52.1974 110.943 52.0928 111.508 52.0928C111.83 52.0928 112.146 52.1268 112.457 52.1942C112.767 52.2609 113.094 52.3655 113.438 52.5067V54.9869Z" fill="white"/>
<path d="M121.499 54.0756H119.002V55.4104H121.36V57.1701H119.002V58.5479H121.499V60.3073H116.9V52.316H121.499V54.0756Z" fill="white"/>
<path d="M125.154 60.3073V52.316H127.256L131.136 57.2018V52.316H133.226V60.3073H131.136L127.256 55.4218V60.3073H125.154Z" fill="white"/>
<path d="M139.958 54.0756V60.3073H137.856V54.0756H136.131V52.316H141.684V54.0756H139.958Z" fill="white"/>
<path d="M149.198 54.0756H146.701V55.4104H149.059V57.1701H146.701V58.5479H149.198V60.3073H144.6V52.316H149.198V54.0756Z" fill="white"/>
<path d="M154.794 55.888H155.191C155.605 55.888 155.923 55.8028 156.145 55.6337C156.366 55.4639 156.477 55.2202 156.477 54.902C156.477 54.5842 156.366 54.3403 156.145 54.1708C155.923 54.001 155.605 53.9165 155.191 53.9165H154.794V55.888ZM159.415 60.3073H156.799L154.794 57.2342V60.3073H152.693V52.316H155.963C156.413 52.316 156.806 52.3812 157.142 52.5119C157.478 52.6434 157.755 52.8214 157.973 53.0472C158.19 53.2737 158.355 53.5348 158.466 53.8313C158.577 54.1284 158.632 54.4462 158.632 54.7851C158.632 55.3933 158.484 55.8863 158.188 56.264C157.89 56.6421 157.453 56.8979 156.874 57.032L159.415 60.3073Z" fill="white"/>
<path d="M89.4862 13.413C89.4862 13.3401 89.4614 13.2733 89.422 13.2182C79.0808 -0.484142 66.5902 0.00220871 66.5902 0.00220871C55.2026 0.00220871 48.132 5.86289 44.2046 10.7748C44.1438 10.8433 44.056 10.8878 43.9587 10.8878C43.9029 10.8878 43.8512 10.8722 43.8056 10.8483L23.6249 0.161356C23.5314 0.113501 23.4254 0.0856781 23.3133 0.0856781C23.1819 0.0856781 23.0598 0.1224 22.9565 0.185839L0.259768 14.0546C0.16302 14.1136 0.0986328 14.2193 0.0986328 14.3401C0.0986328 14.5259 0.250988 14.6762 0.438294 14.6762V14.6773H2.19046L2.19114 14.6767C2.32526 14.6767 2.45099 14.6389 2.55612 14.5721L2.55719 14.5727L17.5064 5.39379L39.742 17.1491L39.7443 17.148C39.8822 17.2253 40.0336 17.2827 40.1923 17.3199C40.2547 17.335 40.3183 17.3467 40.3836 17.3544C40.4495 17.3628 40.517 17.3678 40.5857 17.3678L40.5862 17.3684H54.7665L54.7648 17.3678C54.9522 17.3678 55.1042 17.2176 55.1042 17.0317C55.1042 16.9059 55.0338 16.7974 54.9302 16.7395L51.0417 14.6801C53.5806 10.077 60.0817 1.32158 72.2178 2.93422C79.056 4.13729 84.6324 9.66577 87.7814 13.5204C87.9064 13.6601 88.0887 13.7474 88.2913 13.7474L88.2975 13.7502H88.6031H89.1468L89.1462 13.7485C89.3342 13.7485 89.4862 13.5983 89.4862 13.413Z" fill="#5A7EC8"/>
</svg>
