<svg xmlns="http://www.w3.org/2000/svg" width="417" height="123" fill="none">
  <path fill="#007dc3" d="M408.57 76.86q.63-.63.63-1.59 0-.81-.5-1.32a1.7 1.7 0 0 0-1.3-.52q-.91 0-1.54.65-.63.66-.63 1.6 0 .78.5 1.3.51.53 1.29.53.93 0 1.55-.65m-12.9-10.43q.99-.93 2.24-.93.99 0 1.5.55a2 2 0 0 1 .5 1.42q0 .6-.2 1.19l-5.38.06q.36-1.37 1.35-2.3m6.24 9.8-.95-2.5a9 9 0 0 1-3.88 1q-1.4 0-2.29-.8-.87-.8-.88-2.3v-.47l8.75-.12q.66-1.96.66-3.54 0-2.14-1.33-3.43-1.33-1.28-3.75-1.28-3.4 0-5.6 2.5a9 9 0 0 0-2.2 6.17q0 2.75 1.68 4.4 1.67 1.68 4.63 1.67 2.81 0 5.16-1.3m-19.37 1 1.13-5.35q.66-3.08 1.75-4.47 1.09-1.4 2.31-1.4.69 0 1.38.39l1.49-2.9a3.2 3.2 0 0 0-2.03-.7q-2.3 0-3.88 3.1h-.06l.18-2.75h-2.75l-3.08 14.09zm-15-4.01q0-.96.7-1.58 1.04-.96 3.96-.96h.9l-.15.69a4.2 4.2 0 0 1-1.48 2.43q-1.15.93-2.37.93-1.56 0-1.55-1.51m3 3.64a6 6 0 0 0 2-1.77q.05 1.29.47 2.38l3.05-.65a6 6 0 0 1-.27-1.82q0-1.15.44-3.15l.4-1.5q.47-2.13.47-3.24 0-1-.33-1.8a3.5 3.5 0 0 0-2.06-2.01q-.71-.3-1.41-.4-.71-.1-1.51-.1-2.63 0-5.23 1.1l.48 2.56q2.27-.96 4.06-.96 2.45 0 2.45 1.88 0 .42-.1.92h-1.55q-4.17 0-6.14 1.73a4.7 4.7 0 0 0-1.59 3.7 3.7 3.7 0 0 0 1.08 2.75q1.07 1.05 2.83 1.05 1.29 0 2.47-.67m-10.38.29q1.35-.39 2.2-.93l-.96-2.5a6.4 6.4 0 0 1-3.38.96q-1.61 0-2.46-.93a3.7 3.7 0 0 1-.85-2.59q0-2.44 1.44-3.97a4.7 4.7 0 0 1 3.52-1.54q1.58 0 3.13.78l.66-2.86a9 9 0 0 0-3.85-.78q-3.85 0-6.16 2.52a8.8 8.8 0 0 0-2.3 6.15 6 6 0 0 0 1.66 4.38q1.66 1.7 4.76 1.7 1.23 0 2.59-.4m-16.8-.66-.84-2.53q-1.31.72-2.38.72-1.14 0-1.14-1.05 0-.42.12-.8l1.5-6.91h3.3l1.11-2.77h-3.82l.93-4.17-3.74.92-.71 3.25h-2.45l-.6 2.77h2.45l-1.4 6.5a8 8 0 0 0-.27 1.96q0 3.15 3.76 3.15 2.15 0 4.18-1.04m-20.96-3.27q0-.96.69-1.58 1.05-.96 3.97-.96h.9l-.16.69q-.32 1.5-1.47 2.43t-2.38.93q-1.55 0-1.55-1.51m3 3.64a6 6 0 0 0 1.99-1.77q.06 1.29.47 2.38l3.05-.65a6 6 0 0 1-.27-1.82q0-1.15.45-3.15l.39-1.5q.47-2.13.47-3.24 0-1-.32-1.8a3.5 3.5 0 0 0-2.06-2.01q-.72-.3-1.42-.4t-1.51-.1q-2.63 0-5.23 1.1l.48 2.56q2.27-.96 4.06-.96 2.45 0 2.45 1.88 0 .42-.09.92h-1.55q-4.19 0-6.15 1.73a4.7 4.7 0 0 0-1.59 3.7q0 1.68 1.08 2.75 1.08 1.05 2.84 1.05 1.28 0 2.46-.67M310 66.43q1-.93 2.25-.93.98 0 1.49.55a2 2 0 0 1 .5 1.42q0 .6-.2 1.19l-5.38.06q.36-1.37 1.35-2.3m6.25 9.8-.96-2.5a9 9 0 0 1-3.88 1q-1.41 0-2.28-.8-.89-.8-.88-2.3v-.47l8.74-.12q.66-1.96.66-3.54 0-2.14-1.33-3.43-1.32-1.28-3.75-1.28-3.4 0-5.6 2.5a9 9 0 0 0-2.19 6.17q0 2.75 1.67 4.4 1.68 1.68 4.63 1.67 2.81 0 5.17-1.3m-19.38 1 1.13-5.35q.66-3.08 1.75-4.47 1.1-1.4 2.32-1.4.68 0 1.37.39l1.5-2.9a3.2 3.2 0 0 0-2.04-.7q-2.3 0-3.88 3.1h-.06l.18-2.75h-2.75l-3.07 14.09zm-15.23-5.26q0-2.5 1.37-4.38a4.3 4.3 0 0 1 3.65-1.88q1 0 1.73.24l-.69 3.22q-.62 3-1.86 4.22-1.25 1.23-2.4 1.23-1.8 0-1.8-2.65m-.24 12.33q3.74 0 5.53-1.8 1.8-1.78 2.56-5.41l2.93-13.37q-2.5-.93-5.2-.93-4.41 0-6.77 2.83a10.5 10.5 0 0 0-2.36 6.94q0 2.5 1.13 3.74a3.7 3.7 0 0 0 2.87 1.23q2.47 0 4.27-2.2h.06l-.42 1.88a6 6 0 0 1-1.54 3.05 4.2 4.2 0 0 1-2.94.97q-1.76 0-3.58-.93l-1.17 2.95q2.1 1.05 4.63 1.05m-21.2-12.78q0-2.44 1.23-4.16 1.22-1.7 3.01-1.7 2.6 0 2.6 3.15 0 2.44-1.23 4.15-1.22 1.72-3.01 1.72-2.6 0-2.6-3.16m8.12 3.48a9 9 0 0 0 2.27-6.28q0-2.62-1.6-4.27t-4.46-1.66q-3.35 0-5.61 2.53a9 9 0 0 0-2.27 6.29q0 2.62 1.6 4.27t4.43 1.65q3.38 0 5.64-2.53m-14.09 1.5-.84-2.54a5 5 0 0 1-2.38.72q-1.14 0-1.14-1.05 0-.42.12-.8l1.5-6.91h3.3l1.11-2.77h-3.82l.93-4.17-3.74.92-.71 3.25h-2.45l-.6 2.77h2.45l-1.4 6.5a8 8 0 0 0-.27 1.96q0 3.15 3.76 3.15 2.15 0 4.18-1.04m-30.16 7.8q2.72 0 4.57-1.55 1.85-1.56 3.82-5.28L240 63.15h-3.56l-3.28 6.61q-.75 1.5-1.7 3.7h-.06l-.84-4.06-1.31-6.25h-3.47l3.32 14q-2.19 4.29-4.81 4.29-.98 0-1.88-.45l-1.25 2.65q1.05.66 2.92.66M213.3 73.22q0-.96.69-1.58 1.05-.96 3.97-.96h.9l-.15.69q-.34 1.5-1.48 2.43-1.16.93-2.37.93-1.56 0-1.56-1.51m3 3.64a6 6 0 0 0 1.99-1.77q.06 1.29.48 2.38l3.04-.65a6 6 0 0 1-.27-1.82q0-1.15.45-3.15l.39-1.5q.48-2.13.48-3.24 0-1-.33-1.8a3.5 3.5 0 0 0-2.06-2.01q-.72-.3-1.42-.4t-1.5-.1q-2.64 0-5.23 1.1l.47 2.56q2.28-.96 4.06-.96 2.45 0 2.45 1.88 0 .42-.08.92h-1.56q-4.18 0-6.15 1.73a4.7 4.7 0 0 0-1.58 3.7q0 1.68 1.07 2.75 1.07 1.05 2.84 1.05 1.29 0 2.46-.67m-21.69.47 3.02-5.81q1.1-2.11 1.67-3.37h.06q.27 2.25.42 3.3l.83 5.88h2.57l7.38-14.18h-3.62l-2.8 6.1a61 61 0 0 0-1.5 3.43h-.06q-.15-1.81-.45-4l-.77-5.53h-2.3l-3.1 6.25a52 52 0 0 0-1.5 3.28h-.06a49 49 0 0 0-.42-3.72l-.77-5.8h-3.35l2.27 14.17zm-20.42-10.9q.98-.93 2.24-.93.98 0 1.49.55a2 2 0 0 1 .5 1.42q0 .6-.2 1.19l-5.38.06q.36-1.37 1.35-2.3m6.24 9.8-.96-2.5a9 9 0 0 1-3.88 1q-1.41 0-2.28-.8-.9-.8-.89-2.3v-.47l8.75-.12q.66-1.96.66-3.54 0-2.14-1.33-3.43-1.32-1.28-3.75-1.28-3.4 0-5.6 2.5a9 9 0 0 0-2.19 6.17q0 2.75 1.67 4.4 1.68 1.68 4.63 1.67 2.81 0 5.17-1.3m-24.7 1 1.2-5.44q.54-2.4 1.52-3.81.71-1.05 1.58-1.57.86-.52 1.59-.52 1.34 0 1.34 1.49 0 .63-.3 2l-1.73 7.86h3.55l1.76-8.04q.4-1.91.4-2.86 0-1.76-.92-2.65-.9-.9-2.52-.9-3.05 0-5.14 3.1H158q.39-1.01.75-2.62l1.58-7.12h-3.52l-4.6 21.09zm-5.31-.74-.84-2.53a5 5 0 0 1-2.39.72q-1.13 0-1.13-1.05 0-.42.12-.8l1.5-6.91h3.3l1.11-2.77h-3.82l.93-4.17-3.74.92-.71 3.25h-2.45l-.6 2.77h2.45l-1.4 6.5a8 8 0 0 0-.27 1.96q0 3.15 3.76 3.15 2.14 0 4.18-1.04m-26.58-4.52a7.2 7.2 0 0 1 1.38-4.38 4.3 4.3 0 0 1 3.64-1.88q1.01 0 1.73.24l-.69 3.22q-.62 3-1.86 4.22-1.25 1.23-2.4 1.23-1.8 0-1.8-2.65m-.23 12.33q3.72 0 5.52-1.8 1.8-1.78 2.57-5.41l2.92-13.37q-2.5-.93-5.2-.93-4.41 0-6.77 2.83a10.5 10.5 0 0 0-2.36 6.94q0 2.5 1.14 3.74a3.7 3.7 0 0 0 2.86 1.23q2.48 0 4.27-2.2h.06l-.42 1.88a6 6 0 0 1-1.54 3.05 4.2 4.2 0 0 1-2.94.97q-1.75 0-3.58-.93l-1.16 2.95q2.08 1.05 4.63 1.05m-16.55-7.06 1.2-5.45q.57-2.63 1.67-4.08 1.37-1.82 3.01-1.82 1.35 0 1.35 1.49 0 .63-.3 2l-1.73 7.86h3.55l1.76-8.04q.4-1.91.4-2.86 0-1.76-.92-2.65-.9-.9-2.52-.9-1.59 0-2.96.88a8 8 0 0 0-2.33 2.22h-.06l.18-2.74h-2.75l-3.07 14.09zM103.2 60.2q.72-.65.72-1.7 0-.8-.57-1.34a2 2 0 0 0-1.46-.53q-.97 0-1.66.64-.7.64-.7 1.68 0 .8.55 1.36.55.55 1.45.55.96 0 1.67-.66m-3.64 17.04 3.07-14.09h-3.52l-3.08 14.09zm-14.4-3.6q-.9-1-.9-2.63a5.3 5.3 0 0 1 1.41-3.84 4.7 4.7 0 0 1 3.56-1.46q1.05 0 1.94.36l-1.8 8.22q-.8.33-1.76.33a3.2 3.2 0 0 1-2.45-.99m7.26 2.85 4.45-20.34h-3.55l-1.53 7.06a9 9 0 0 0-2.83-.42q-3.56 0-5.9 2.31a8.1 8.1 0 0 0-2.34 6.06q0 2.9 1.82 4.63 1.81 1.74 4.92 1.74 2.6 0 4.96-1.04m-23.77-3.27q0-.96.7-1.58 1.04-.96 3.96-.96h.9l-.15.69q-.33 1.5-1.48 2.43-1.16.93-2.37.93-1.56 0-1.56-1.51m3 3.64a6 6 0 0 0 1.99-1.77q.06 1.29.48 2.38l3.04-.65A6 6 0 0 1 76.9 75q0-1.15.45-3.15l.4-1.5q.46-2.13.47-3.24 0-1-.33-1.8a3.5 3.5 0 0 0-2.06-2.01q-.72-.3-1.42-.4t-1.5-.1q-2.64 0-5.23 1.1l.48 2.56q2.25-.96 4.06-.96 2.45 0 2.45 1.88 0 .42-.1.92h-1.55q-4.17 0-6.15 1.73a4.7 4.7 0 0 0-1.58 3.7q0 1.68 1.07 2.75 1.08 1.05 2.84 1.05 1.29 0 2.46-.67M56.26 66.43q.98-.93 2.24-.93.98 0 1.5.55a2 2 0 0 1 .5 1.42q0 .6-.2 1.19l-5.38.06q.35-1.37 1.34-2.3m6.24 9.8-.95-2.5a9 9 0 0 1-3.89 1q-1.4 0-2.28-.8t-.88-2.3v-.47l8.75-.12q.66-1.96.66-3.54 0-2.14-1.33-3.43-1.34-1.28-3.75-1.28-3.4 0-5.6 2.5a9 9 0 0 0-2.2 6.17q0 2.75 1.68 4.4 1.67 1.68 4.63 1.67 2.8 0 5.16-1.3m-14.87 1 .69-3.03h-6.93L45 57.6h-3.6l-4.28 19.63zM407.98 66.74c.23.15.56.28.97.28.48 0 1-.2 1-.82 0-1.03-1.57-1.02-1.57-2.27 0-.78.6-1.34 1.55-1.34q.67.02 1.1.24l-.12.57a2 2 0 0 0-.98-.25c-.48 0-.87.25-.87.7 0 .9 1.58.94 1.58 2.28 0 1-.78 1.46-1.69 1.46-.54 0-.96-.16-1.24-.33zM412.35 62.63h.63l.75 2.08q.21.56.33.92h.01c.15-.21.35-.5.55-.75l1.69-2.25h.69l-1.04 4.88h-.65l.54-2.53q.15-.67.29-1.23h-.02c-.15.22-.38.53-.6.8l-1.42 1.87h-.35l-.69-1.83-.29-.84h-.01L412.5 65l-.53 2.51h-.66z"/>
  <path fill="#fff" d="M25.1 32.09H2.4a2.4 2.4 0 0 1-2.4-2.4V3.6a2.4 2.4 0 0 1 2.4-2.39h22.7a2.4 2.4 0 0 1 2.39 2.39v26.1a2.4 2.4 0 0 1-2.4 2.39"/>
  <path fill="#007dc3" d="M46.97 15.7q.04.65.04 1.1v2.4h-5.86q.04-.88.13-1.83.1-1.13.46-2.11.33-.93 1.03-1.53.66-.57 1.93-.57.86 0 1.31.36.48.4.7.96.23.61.26 1.22m3.75-2a8 8 0 0 0-2.8-1.51c-2.48-.78-5-.6-7.13.37a11 11 0 0 0-3.25 2.24q-1.39 1.37-2.18 3.18a9 9 0 0 0-.8 3.71q0 2.37.84 4.24a9 9 0 0 0 2.33 3.18q1.47 1.3 3.46 1.98 1.96.68 4.23.68 1.94-.01 3.33-.56a8 8 0 0 0 2.32-1.38 7 7 0 0 0 1.49-1.8 8 8 0 0 0 .75-1.8l.1-.4-1.48-.52-.06.54a5.86 5.86 0 0 1-1.4 2.56q-.67.75-1.77 1.36-1.06.57-2.64.58a4.4 4.4 0 0 1-2.7-.71 4.6 4.6 0 0 1-1.46-1.87 8 8 0 0 1-.64-2.64 37 37 0 0 1-.13-3.02v-1.46h12.45v-.43a9 9 0 0 0-.8-3.88 8 8 0 0 0-2.06-2.65M56.13 0v1.46h2.83v28.3h-2.83v1.46H67.8v-1.46h-2.82V0zM76.6 25.47a57 57 0 0 1 .09-7.92q.18-1.69.62-2.67.41-.93 1.03-1.33.64-.39 1.56-.39 1.4 0 2.2.76.84.81 1.28 2.06.44 1.3.59 2.85a32 32 0 0 1 .03 5.8q-.1 1.51-.58 2.83a5 5 0 0 1-1.39 2.1q-.86.78-2.46.79-1.01 0-1.59-.52-.6-.56-.93-1.61-.34-1.13-.45-2.75M90.13 0h-8.89v1.46h2.87v12.51a5 5 0 0 0-1.2-1.3 5.5 5.5 0 0 0-3.34-.97 9 9 0 0 0-7.38 3.5q-1.16 1.49-1.71 3.25A10.32 10.32 0 0 0 72.6 28.7a10 10 0 0 0 3.02 2.22q1.77.84 3.95.84 2.05 0 3.37-1.04.72-.55 1.25-1.38v1.88h8.73v-1.46h-2.79zM107.66 15.7q.04.65.04 1.1v2.4h-5.86q.04-.88.13-1.83.1-1.15.46-2.11.33-.94 1.04-1.53.65-.57 1.92-.57.87 0 1.31.36.48.4.7.96.23.6.26 1.22m3.75-2a8 8 0 0 0-2.8-1.51c-2.48-.78-5-.6-7.13.37a11 11 0 0 0-3.25 2.24q-1.39 1.39-2.18 3.18a9 9 0 0 0-.8 3.71q0 2.38.84 4.24a9 9 0 0 0 2.33 3.18q1.48 1.3 3.46 1.98 1.96.68 4.23.68 1.95-.01 3.33-.56a8 8 0 0 0 2.32-1.38 7 7 0 0 0 1.49-1.8q.52-.97.75-1.8l.1-.4-1.48-.52-.06.54a5.87 5.87 0 0 1-1.39 2.56q-.7.76-1.78 1.36-1.06.57-2.64.58a4.4 4.4 0 0 1-2.7-.71 4.7 4.7 0 0 1-1.47-1.87 8 8 0 0 1-.64-2.64 38 38 0 0 1-.12-3.02v-1.46h12.45v-.43q0-2.26-.8-3.88a8 8 0 0 0-2.06-2.65M133.96 12.96a4.7 4.7 0 0 0-3.16-1.05q-2.27 0-3.69 1.27a9 9 0 0 0-1.4 1.6V12.3h-8.68v1.46h2.75v16.01h-2.75v1.46h12.1v-1.46h-3.34V19.42q0-1.28.38-2.27.38-1.01.9-1.73.5-.69 1.06-1.04c.45-.3.7-.34.81-.34.23 0 .3.05.31.06q.1.07.14.17.05.08.09.33a9 9 0 0 1-.14.93 17 17 0 0 0-.15 1.2c0 1.12.56 1.64 1.04 1.88q.89.45 1.97.44 1.55 0 2.29-.87.71-.83.72-2.26-.01-1.87-1.25-2.96"/>
  <path fill="#8dc63f" d="M139.5 11.92h2.45v3.52a8.79 8.79 0 0 1 7.53-4.01q4.04 0 6.92 2.94a9.7 9.7 0 0 1 2.88 7.07q0 4.22-2.85 7.17a9.2 9.2 0 0 1-6.88 2.94q-2.26 0-4.17-.95a10.5 10.5 0 0 1-3.43-2.83v16.01h-2.44zm9.78 1.88q-3.17 0-5.34 2.23a7.7 7.7 0 0 0-2.17 5.56q0 2.18.97 3.92a7.6 7.6 0 0 0 6.57 3.78q1.97 0 3.7-1.04a7.5 7.5 0 0 0 2.76-2.87 7.84 7.84 0 0 0-2.73-10.57 7.3 7.3 0 0 0-3.76-1M167 2.25h-2.44v28.81H167zM192.07 11.92v19.14h-2.41v-3.29a10.4 10.4 0 0 1-3.45 2.83 9 9 0 0 1-4.18.95 9.2 9.2 0 0 1-6.89-2.94 10 10 0 0 1-2.85-7.17q0-4.14 2.88-7.07a9.3 9.3 0 0 1 6.93-2.94 9 9 0 0 1 4.23 1 10 10 0 0 1 3.33 3v-3.51zm-9.77 1.88q-2.04 0-3.76 1.01a7.82 7.82 0 0 0-2.74 10.57 7.5 7.5 0 0 0 6.48 3.9 7.6 7.6 0 0 0 6.57-3.77q.96-1.74.96-3.92 0-3.33-2.17-5.56a7.2 7.2 0 0 0-5.34-2.23M199.35 11.92h2.44v3.43q1.47-1.97 3.25-2.95a8 8 0 0 1 3.87-.97q2.13 0 3.78 1.09t2.43 2.93q.8 1.86.79 5.76v9.85h-2.44v-9.13q0-3.3-.28-4.42a5 5 0 0 0-1.62-2.85 5 5 0 0 0-3.15-.96 6 6 0 0 0-3.97 1.47 7 7 0 0 0-2.31 3.66q-.35 1.43-.35 5.21v7.02h-2.44z"/>
  <path fill="#007dc3" d="M407.91 25.23a3.1 3.1 0 0 1 3.12 3.12 3.1 3.1 0 0 1-3.14 3.14 3.1 3.1 0 0 1-3.15-3.14c0-1.73 1.4-3.12 3.15-3.12zm-.04.63c-1.33 0-2.35 1.12-2.35 2.5s1.02 2.48 2.4 2.48c1.33.01 2.33-1.1 2.33-2.49 0-1.37-1-2.49-2.36-2.49zm-.46 4.11h-.72v-3.1q.44-.1 1.18-.12c.59 0 .85.1 1.07.25.17.14.29.39.29.66 0 .37-.25.64-.62.74v.06q.43.12.55.75c.1.47.15.66.22.76h-.76c-.1-.12-.15-.38-.24-.74q-.07-.51-.63-.5h-.34zm.02-1.74h.33c.39 0 .7-.14.7-.46q.01-.46-.65-.48-.26 0-.38.04zM231.7 30.44h2.9V2.33h-2.9v-.75h2.65c3 0 3.53 0 4.29-1.27V16.1h.09c1.13-2.44 3.92-3.91 6.74-3.91 1.99 0 5.2 1.98 5.2 6.52v11.74h2.9v.76h-9.26v-.76h2.41v-13.3c0-2.94-2.39-3.45-3.6-3.45-2.37 0-4.48 3.07-4.48 5.22v11.53h2.49v.76h-9.43zM264.59 12.18c5.57 0 9.29 4 9.29 9.76s-3.72 9.76-9.29 9.76-9.28-4-9.28-9.76 3.7-9.76 9.28-9.76m-4.31 14.3c0 3.16 2.16 4.47 4.31 4.47s4.44-1.31 4.44-4.47V17.4c0-3.15-2.29-4.45-4.44-4.45s-4.31 1.3-4.31 4.45zM279.86 13.44h-2.9v-.76h2.98c1.73 0 3.24 0 4.12-1.1v4.51h.09a6.3 6.3 0 0 1 5.99-3.91c2.44 0 4.6 1.26 5.4 3.91 1.39-2.52 3.16-3.91 6-3.91 3.54 0 5.48 1.98 5.48 6.52v11.74h2.9v.76h-9.12v-.76h2.23v-13c0-2.49-1.5-3.75-3.06-3.75-2.66 0-4.43 3.32-4.43 5.23v11.52h2.32v.76h-8.64v-.76h2.37v-13c0-2.49-1.54-3.75-3.1-3.75-2.66 0-4.43 3.32-4.43 5.23v11.52h2.2v.76h-9.3v-.76h2.9zM316.04 21.01v3.54c0 2.86 1.45 6.14 5.37 6.14 3.3 0 4.99-2.44 5.91-6.35h.76c-.93 4.16-2.75 7.36-7.93 7.36-5.4 0-8.66-4.08-8.66-9.55 0-5.68 3.55-9.97 8.53-9.97 4.43-.08 7.9 4.3 7.94 8.83zm7.24-.75v-3.62c0-2.32-1.53-3.7-3.56-3.7-1.42 0-3.68.88-3.68 3.7v3.62zM342.95 5.61a5 5 0 0 0-2.31-.57c-1.75 0-2.56 1.21-2.56 3.36v3.68h4.99l-1.05 2.42h-3.94v16.72h-2.96V14.5h-2.4v-2.42h2.4v-3.4c0-4.98 3.24-6.1 5.6-6.1.85 0 1.99.2 2.84.64zM350.42 8.07c-1 0-1.82-.82-1.82-1.8 0-1 .83-1.82 1.82-1.82s1.81.82 1.81 1.82c0 .98-.81 1.8-1.8 1.8m-1.46 4.01h2.96v19.14h-2.96zM369.16 15.03a5 5 0 0 0-1.74-.32c-1.3 0-2.68.77-4.3 2.3v14.2h-2.96V12.09h2.44l.4 2.18c2.63-2.38 4.1-2.67 5.31-2.67 1.01 0 1.74.33 2.1.57zM378.7 31.62a10.6 10.6 0 0 1-5.67-1.46l1.13-2.3c.9.56 2.56 1.37 4.66 1.37 2.36 0 4.06-1.05 4.06-2.83 0-4.7-8.72-3.04-8.72-9.67 0-2.83 1.99-5.14 6.37-5.14 2.03 0 3.57.45 4.83 1.01v2.6a11 11 0 0 0-4.7-1.14c-1.95 0-3.58.69-3.58 2.43 0 4.29 8.88 3.2 8.88 9.47 0 4-3.16 5.66-7.25 5.66M397.09 31.62c-2.8 0-4.14-1.62-4.14-4.09V14.51h-3.12v-2.43h3.12V7.87l2.96-1.01v5.22h5.88l-1.06 2.43h-4.82v12.34c0 1.57.6 2.22 1.95 2.22 1.42 0 2.55-.6 3.28-1.01l.9 2.1c-1.35.81-3 1.46-4.95 1.46M224.83 2.11h-1.23v29.13h1.23z"/>
  <path fill="#8dc63f" d="M24.7 2.1H19.3c-.77.8-2.8 3.01-5.2 6.56l.02.07v.02c.29 1.18 1.54 6.52 1.59 11.03.06 6.76-.44 10.48-.6 11.42h9.58c1.08 0 1.96-.83 1.96-1.87V3.98c0-1.04-.88-1.88-1.96-1.88"/>
  <path fill="#007dc3" d="M10.01 2.1h-7.2C1.71 2.1.84 2.94.84 3.98v25.35c0 1.04.87 1.87 1.95 1.87h3.64c.63-9.54 3.06-16.46 6.34-22.44a58 58 0 0 0-2.77-6.66"/>
  <path fill="#7fabdb" d="M14.06 16.97q-.2-3.22-.79-6.15l-.08-.47c-1.29 3-3.63 9.76-4.63 20.84v.01h4.42a58 58 0 0 0 1.18-11.3q0-1.5-.1-2.93"/>
  <path fill="#b5d780" d="M13.68 7.17q1.45-2.43 3.04-4.75l.23-.32h-4.86c.13.28.39.95.84 2.48z"/>
</svg>
